<svg xmlns="http://www.w3.org/2000/svg" xmlns:xlink="http://www.w3.org/1999/xlink" viewBox="0 0 500 500" xmlns:v="https://vecta.io/nano"><style><![CDATA[.Ay{fill:#fcaf90}.Az{fill:#97dfff}.BA{fill:#fff}.BB{fill:#55c3fe}.BC{fill:#ff64a9}.BD{fill:#ffbddd}.BE{fill:#306dc6}.BF{fill:#f0fbff}.BG{fill:#164072}.BH{fill:#edf4f4}.BI{fill:#179ecc}]]></style><radialGradient id="A" cx="351.309" cy="234.606" r="54.875" gradientTransform="matrix(-0.9696 0 0 0.5753 617.297 276.2585)" gradientUnits="userSpaceOnUse"><stop offset="0" stop-color="#7c969e"/><stop offset=".148" stop-color="#819aa2" stop-opacity=".852"/><stop offset=".332" stop-color="#91a7ad" stop-opacity=".668"/><stop offset=".535" stop-color="#aabbc0" stop-opacity=".465"/><stop offset=".752" stop-color="#cdd7da" stop-opacity=".248"/><stop offset=".978" stop-color="#fafbfb" stop-opacity=".022"/><stop offset="1" stop-color="#fff" stop-opacity="0"/></radialGradient><path d="M221.8 411.2c0 17.7 24.6 32.1 54.9 32.1s54.9-14.4 54.9-32.1-24.6-32.1-54.9-32.1-54.9 14.4-54.9 32.1z" fill="url(#A)"/><radialGradient id="B" cx="212.589" cy="206.345" r="54.874" gradientTransform="matrix(-0.9696 0 0 0.5753 617.297 272.7645)" gradientUnits="userSpaceOnUse"><stop offset="0" stop-color="#7c969e"/><stop offset="1" stop-color="#fff" stop-opacity="0"/></radialGradient><path d="M356.3 391.5c0 17.7 24.6 32.1 54.9 32.1s54.9-14.4 54.9-32.1-24.6-32.1-54.9-32.1-54.9 14.3-54.9 32.1z" fill="url(#B)"/><radialGradient id="C" cx="305.259" cy="155.187" r="34.727" gradientTransform="matrix(-0.9696 0 0 0.5753 617.297 266.4399)" gradientUnits="userSpaceOnUse"><stop offset="0" stop-color="#7c969e"/><stop offset="1" stop-color="#fff" stop-opacity="0"/></radialGradient><path d="M286.6 355.7c0 11.2 15.6 20.3 34.7 20.3 19.2 0 34.7-9.1 34.7-20.3s-15.6-20.3-34.7-20.3c-19.2 0-34.7 9.1-34.7 20.3z" fill="url(#C)"/><radialGradient id="D" cx="424.824" cy="220.234" r="39.692" gradientTransform="matrix(-0.9696 0 0 0.5753 617.297 274.4816)" gradientUnits="userSpaceOnUse"><stop offset="0" stop-color="#7c969e"/><stop offset="1" stop-color="#fff" stop-opacity="0"/></radialGradient><path d="M165.7 401.2c0 12.8 17.8 23.2 39.7 23.2s39.7-10.4 39.7-23.2-17.8-23.2-39.7-23.2-39.7 10.4-39.7 23.2z" fill="url(#D)"/><radialGradient id="E" cx="512.927" cy="202.739" r="58.581" gradientTransform="matrix(-0.9696 0 0 0.5753 617.297 272.3188)" gradientUnits="userSpaceOnUse"><stop offset="0" stop-color="#7c969e"/><stop offset="1" stop-color="#fff" stop-opacity="0"/></radialGradient><path d="M61.4 389c0 18.9 26.2 34.3 58.6 34.3s58.6-15.3 58.6-34.3c0-18.9-26.2-34.3-58.6-34.3S61.4 370 61.4 389z" fill="url(#E)"/><radialGradient id="F" cx="480.115" cy="213.277" r="58.581" gradientTransform="matrix(-0.9696 0 0 0.5753 617.297 273.6215)" gradientUnits="userSpaceOnUse"><stop offset="0" stop-color="#7c969e"/><stop offset="1" stop-color="#fff" stop-opacity="0"/></radialGradient><path d="M93.2 396.3c0 18.9 26.2 34.3 58.6 34.3s58.6-15.3 58.6-34.3c0-18.9-26.2-34.3-58.6-34.3-32.4.1-58.6 15.4-58.6 34.3z" fill="url(#F)"/><radialGradient id="G" cx="480.115" cy="222" r="58.58" gradientTransform="matrix(-0.9696 0 0 0.5753 617.297 274.7)" gradientUnits="userSpaceOnUse"><stop offset="0" stop-color="#7c969e"/><stop offset="1" stop-color="#fff" stop-opacity="0"/></radialGradient><path d="M93.2 402.4c0 18.9 26.2 34.3 58.6 34.3s58.6-15.3 58.6-34.3c0-18.9-26.2-34.3-58.6-34.3-32.4.1-58.6 15.4-58.6 34.3z" fill="url(#G)"/><radialGradient id="H" cx="553.334" cy="240.659" r="58.58" gradientTransform="matrix(-0.9696 0 0 0.5753 617.297 277.0068)" gradientUnits="userSpaceOnUse"><stop offset="0" stop-color="#7c969e"/><stop offset="1" stop-color="#fff" stop-opacity="0"/></radialGradient><path d="M22.2 415.5c0 18.9 26.2 34.3 58.6 34.3s58.6-15.3 58.6-34.3c0-18.9-26.2-34.3-58.6-34.3s-58.6 15.3-58.6 34.3z" fill="url(#H)"/><radialGradient id="I" cx="459.485" cy="198.241" r="58.581" gradientTransform="matrix(-0.9696 0 0 0.5753 617.297 271.7627)" gradientUnits="userSpaceOnUse"><stop offset="0" stop-color="#7c969e"/><stop offset="1" stop-color="#fff" stop-opacity="0"/></radialGradient><path d="M113.2 385.8c0 18.9 26.2 34.3 58.6 34.3s58.6-15.3 58.6-34.3c0-18.9-26.2-34.3-58.6-34.3s-58.6 15.4-58.6 34.3z" fill="url(#I)"/><radialGradient id="J" cx="402.233" cy="207.445" r="39.691" gradientTransform="matrix(-0.9696 0 0 0.5753 617.297 272.9005)" gradientUnits="userSpaceOnUse"><stop offset="0" stop-color="#7c969e"/><stop offset="1" stop-color="#fff" stop-opacity="0"/></radialGradient><path d="M187.6 392.2c0 12.8 17.8 23.2 39.7 23.2S267 405 267 392.2 249.2 369 227.3 369s-39.7 10.4-39.7 23.2z" fill="url(#J)"/><radialGradient id="K" cx="342.575" cy="160.425" r="39.69" gradientTransform="matrix(-0.9696 0 0 0.5753 617.297 267.0875)" gradientUnits="userSpaceOnUse"><stop offset="0" stop-color="#7c969e"/><stop offset="1" stop-color="#fff" stop-opacity="0"/></radialGradient><path d="M245.4 359.4c0 12.8 17.8 23.2 39.7 23.2s39.7-10.4 39.7-23.2-17.8-23.2-39.7-23.2-39.7 10.4-39.7 23.2z" fill="url(#K)"/><radialGradient id="L" cx="331.332" cy="147.206" r="39.691" gradientTransform="matrix(-0.9696 0 0 0.5753 617.297 265.4532)" gradientUnits="userSpaceOnUse"><stop offset="0" stop-color="#7c969e"/><stop offset="1" stop-color="#fff" stop-opacity="0"/></radialGradient><path d="M256.3 350.1c0 12.8 17.8 23.2 39.7 23.2s39.7-10.4 39.7-23.2-17.8-23.2-39.7-23.2-39.7 10.4-39.7 23.2z" fill="url(#L)"/><path d="M140.8 407.9l-50.2-29V224.1l50.2 29z" fill="#629ff9"/><path d="M285.9 323.7l-145.1 83.8V253.1l145.9-83.8z" class="BE"/><path d="M236.5 140.3L90.6 224.1l50.2 29 145.9-83.8z" fill="#bddeff"/><path d="M137.6 271.2l-43.8-25.3v7.3l43.8 25.3zm0 11.2l-43.8-25.3v7.2l43.8 25.3zm0 90.7l-43.8-25.3v7.2l43.8 25.3zm0 11.1l-43.8-25.3v7.3l43.8 25.3z" class="BE"/><path d="M316.4 343.9h0v-7.6L311 339l-9.5-5.5c-3.1-1.8-8.2-1.8-11.3 0l-96 55.4-5.5-2.7v7.5c-.1 1.3.6 2.5 2.3 3.5l12.7 7.3c3.1 1.8 8.2 1.8 11.3 0l99.1-57.2c1.6-.9 2.4-2.2 2.3-3.4z" class="BB"/><path d="M194.1 389l-5.5-2.7v7.5c-.1 1.3.6 2.5 2.3 3.5l12.7 7.3c1.5.9 3.5 1.3 5.5 1.3v-25.6l-15 8.7z" class="BI"/><path d="M203.7 396.6c3.1 1.8 8.2 1.8 11.3 0l99.1-57.2c3.1-1.8 3.1-4.7 0-6.5l-12.7-7.3c-3.1-1.8-8.2-1.8-11.3 0L191 382.8c-3.1 1.8-3.1 4.7 0 6.5l12.7 7.3z" class="Az"/><path d="M348.3 157l-6.5-3.7c-.1-.1-.3-.2-.4-.3h0c-.6-.2-1.4-.1-2.3.4L152.5 261.2c-2 1.2-3.6 4-3.6 6.3v143.3c0 1.2.4 2 1.1 2.3.1.1.2.1.3.1l6.5 3.7 1.3-7-1.9.8 182.9-105.6c2-1.2 3.6-4 3.6-6.3V161l5.6-4z" fill="#35afe5"/><path d="M341.8 153.3c-.1-.1-.3-.2-.4-.3h0c-.6-.2-1.4-.1-2.3.4L152.5 261.2c-.9.5-1.7 1.3-2.3 2.3L275 342.1l64.1-37c2-1.2 3.6-4 3.6-6.3V161l5.6-3.9-6.5-3.8z" class="Az"/><path d="M349.4 302.6c0 2.3-1.6 5.1-3.6 6.3L159.2 416.6c-2 1.2-3.6.2-3.6-2.1V271.3c0-2.3 1.6-5.1 3.6-6.3l186.6-107.7c2-1.2 3.6-.2 3.6 2.1v143.2z" class="BB"/><path d="M345.9 292.1L159.1 400V271l186.8-107.8z" class="BF"/><path d="M344.1 164.2v126.5l-185 106.8v2.5l186.8-107.9V163.2z" class="BA"/><path d="M324.2 360.9l-13-7.5v-53.9h13z" class="BC"/><path d="M324.2 360.9l7.6-4.6v-56.8h-7.6z" fill="#ed358d"/><path d="M327.7 256.1h0c-3.8-2.2-9.1-1.9-14.9 1.5-11.6 6.7-21 23-21 36.5 0 6.6 2.2 11.2 5.9 13.5.3.2.7.3 1 .5h0l31.6 16.5L363 273l-35.3-16.9z" class="BD"/><path d="M358.4 270.9c-5.4-1.3-10.6-1.9-16 1.4-11.5 7-21 23-21 36.5 0 6.1 2 10.6 5.2 13 29.8 21.3 60.4 64.7 60.4 64.7s26.4-48.3 65.3-103.5c-47.6-.1-93.9-12.1-93.9-12.1z" class="BC"/><path d="M384.4 370.2c0 29.8 20.9 41.9 46.7 27s46.7-51.1 46.7-80.9-20.9-41.9-46.7-27-46.7 51.1-46.7 80.9z" fill="#ed358d"/><path d="M389.6 342.5l32.7 16.6 18.8-31.2-32.5-19c-8.1 9.9-14.8 21.6-19 33.6z" fill="#d1d2d3"/><path d="M418.2 350.7c0 8.2 5.8 11.6 12.9 7.5s12.9-14.1 12.9-22.4c0-8.2-5.8-11.6-12.9-7.5s-12.9 14.1-12.9 22.4z" class="BA"/><path d="M425.9 325.6c23.6-13.6 43.1-4.7 46.2 19.7 3.6-9.7 5.7-19.7 5.7-29 0-29.8-20.9-41.9-46.7-27s-46.7 51.1-46.7 80.9c0 2.6.2 5 .5 7.3 7.9-21.4 23.3-41.7 41-51.9z" opacity=".3" fill="#f4dcbd"/><path d="M235.1 349.5l7.8-4.6v-63.1l-7.8 4.6z" fill="#39e5d4"/><path d="M227.3 344.9l7.8 4.6v-63.1l-7.8-4.6z" fill="#24c1d1"/><path d="M235.1 286.4l7.8-4.6-7.8-4.5-7.8 4.5z" fill="#62f9e6"/><path d="M217 359.9l7.9-4.5v-76.1l-7.9 4.6z" fill="#49a3db"/><path d="M209.2 355.4l7.8 4.5v-76l-7.8-4.6z" fill="#2f96c9"/><path d="M217 283.9l7.9-4.6-7.9-4.5-7.8 4.5z" fill="#7dd6f9"/><path d="M198.9 370.3l7.9-4.6v-89.4l-7.9 4.6z" fill="#b26abf"/><path d="M191.1 365.7l7.9 4.6v-89.4l-7.9-4.6z" fill="#cc75db"/><path d="M198.9 280.9l7.9-4.6-7.8-4.5-7.9 4.5z" fill="#da8ce5"/><path d="M199 370.4l7.8-4.5v-89.4L199 281z" fill="#3e82e5"/><path d="M191.1 365.9l7.9 4.5V281l-7.9-4.5z" fill="#2760c4"/><path d="M199 281l7.8-4.5-7.8-4.6-7.9 4.6z" fill="#57a0f7"/><path d="M180.9 380.9l7.8-4.6v-103l-7.8 4.5z" fill="#5a34d1"/><path d="M173 376.3l7.9 4.6V277.8l-7.9-4.5z" fill="#4721a5"/><path d="M180.9 277.8l7.8-4.5-7.8-4.5-7.9 4.5z" fill="#7a5df4"/><path d="M300.4 217.5l.9-1.4-4.7-4c-7.2-4.1-13.6-3.1-22.6 2.1-9.4 5.5-17.8 15-22.9 25-3.3 6.5-5.2 13.2-5.2 19.2 0 7.2 1.1 10.6 5 13.9l5.6 3.3 4.1-1c4-.1 8.5-1.5 13.4-4.3 4.7-2.7 9.1-6.4 13-10.7 8.9-9.8 15-22.7 15-33.5 0-3.4-.6-6.3-1.6-8.6z" fill="#8abfff"/><path d="M282.6 233.3c0 7.1-5.7 16.1-12.8 20.2s-12.8 1.7-12.8-5.4 5.7-16.1 12.8-20.2 12.8-1.7 12.8 5.4z" fill="#2e4759"/><path d="M275 237.6c0 2.9-2.3 6.5-5.2 8.2s-5.2.7-5.2-2.2 2.3-6.5 5.2-8.2c2.9-1.6 5.2-.6 5.2 2.2z" fill="#40b5b5"/><path d="M306.2 229c0 15.5-12.6 35.3-28.1 44.3-15.5 8.9-28.1 3.6-28.1-11.9s12.6-35.3 28.1-44.2c15.5-9 28.1-3.6 28.1 11.8z" class="BE"/><path d="M298.6 233.4c0 11.3-9.2 25.8-20.5 32.4-11.3 6.5-20.5 2.7-20.5-8.7 0-11.3 9.2-25.8 20.5-32.4 11.3-6.5 20.5-2.7 20.5 8.7z" fill="#f6f5fb"/><path d="M290.9 237.8c0 7.1-5.7 16.1-12.8 20.2s-12.8 1.7-12.8-5.4 5.7-16.1 12.8-20.2c7.1-4 12.8-1.6 12.8 5.4z" class="BE"/><path d="M283.3 242.2c0 2.9-2.3 6.5-5.2 8.2s-5.2.7-5.2-2.2 2.3-6.5 5.2-8.2c2.9-1.6 5.2-.6 5.2 2.2z" fill="#f6f5fb"/><path d="M315.2 259.1l13.4 7.7-5.6 2.6-13.8-8zm0 15.5l13.4 7.8-5.6-9-13.8-8z" fill="#39e5d4"/><path d="M310.2 262l-32-18.5h-.1c-.2-.1-.5-.1-.8.1-.7.4-1.2 1.3-1.2 2.1 0 .4.2.7.4.8h0l46.5 26.8 1.8-3-14.6-8.3z" fill="#235999"/><path d="M325.1 271.2c0 .8-.5 1.7-1.2 2.1s-1.2.1-1.2-.7.5-1.7 1.2-2.1c.6-.4 1.2-.1 1.2.7z" fill="#2f6faf"/><path d="M141.9 210.9s-.8 3.7-.7 4.8c.2 1.1.8 3.1 5.5 2.4s11.7-2.8 12.7-4.8-2.3-3-6.9-1.6c-2.7.8-5-1-5-1l-5.6.2z" fill="#2b2b2b"/><path d="M122.7 177.9c9.1-5.4 24.2-13.2 26.1-7.7 2.9 7.9 0 40.8 0 40.8s-4.1 2.5-8 .4l-1-28.5s-8 9.5-17.2 12.9v-17.9z" fill="#04467c"/><path d="M151.9 195v35.4l-4.4 9.3-16.1 2.5-11.8-6.8V200z" class="BB"/><path d="M138.8 197l13.1-2v35.4l-4.4 9.3-8.7 1.4z" fill="#098eb2"/><path d="M147.5 204.3v35.4l-16.1 2.5v-35.4z" class="BI"/><path d="M140 188.1l-16.1 2.5-4.3 9.4 11.8 6.8 16.1-2.5 4.4-9.3z" class="Az"/><path d="M117.6 124.7c.5-8.1.6-19.7.6-23.1h0c-.1-1.1-1.4-4.4-1.7-5.7-.1-.6 3.9-2.5 3.9-2.5l.9-6.5c.1-.9 1.2-.7 1.3 1.7.1 2.5-.2 6.1-.3 6.9s.3 1.2.3 1.2.4-2.1.1-3c-.2-.9.9-1 1.4.7s.2 2.6-.4 4.5c-.2.8-.4 1.8-.6 2.8-.1 1-.2 2.8-.3 4.1-.2 3.4-.3 3.1.1 12.2.1 1.2-.9 10.7-1.1 12.7l1.8-4.3c-1.8 14.8-6.5 25.5-6.5 25.5l-5.5-1.9c0 .3 4.2-17.8 6-25.3z" class="Ay"/><path d="M121.8 138.6c-1.5 8.3-3 13.6-3 13.6l-7.2-1.9 2.4-13.9c2.6 1.1 5.2 1.5 7.8 2.2z" class="BA"/><path d="M182.6 169.3L151.2 182l-12.8-14.6 28.4-12.7z" fill="#dfecf2"/><path d="M145.3 191.1s.4 3.5.8 4.5 1.5 2.5 4.9.3c3.5-2.2 8.3-6.2 8.6-8.3.2-2.1-2.6-2-5.8.8-1.9 1.6-4.1.7-4.1.7l-4.4 2zm10.8 30.1s-1.1 3.6-1 4.7.5 3.2 5.3 2.8 11.9-1.8 13.1-3.8c1.2-1.9-2-3.2-6.8-2.1-2.8.6-4.9-1.4-4.9-1.4l-5.7-.2z" fill="#2b2b2b"/><path d="M132.2 190.6s31.8-17.5 34-9.4-3.2 40.7-3.2 40.7-4.3 2.2-8-.2l1.2-28.5s-12.7 12.8-23.9 12.2c-11.3-.5-25.3-10.8-17.3-23.8 9.6-.6 17.2 9 17.2 9z" fill="#1067bf"/><path d="M124.9 147.5s6.9 2.4 9.4 8.9 5.4 20.1 5.4 20.1l.9 4.6s2.8 20.9-22.7 15.4c-10.3-2.2-6.6-7.5-6.9-9.2-.2-1.7 1-7.1 0-14.3s-3.3-31.5 9.8-29.5c6.5 2.1 4.1 4 4.1 4z" class="BA"/><path d="M135.8 131.4s0 .1.1.2c.3.6 1 2.5.7 4.3-.5 2.1 1.7 3 1.7 3s.6.6-.5.9c-1 .3-1.5.6-1.5.6s-.8 4-1.2 4.7-2.2.5-3.7.6c-1.5 0-2.8 2.5-2.9 3.9-4.4-1-8-4.9-8-4.9l1.4-3.5c0-.2 5.5-15.8 13.9-9.8z" class="Ay"/><path d="M131 139.9s2.8-4.4 2-6.9c-.7-2.4 3.1-1 3.1-1s3.5-2.9 2.5-6c-.7.7-1.8.4-1.8.4l.7-1.4s-3.5.4-4.5.2c.9-.5 1.4-1.5 1.4-1.5s-3.8.6-5.7.6-6.3-.3-7.6 3.4c-2.3 3.1-3.6 12 .3 14.5 2.3 1.7 3.7 1 3.7 1s1.7-4.1 1.9-5.7 3.9-2.4 3.2.6c-.4 1.5-.2 2.4-.2 2.4l1-.6z" fill="#333"/><path d="M135.7 170.2s4.9 11.5 5.2 13.1c3.3-1.2 17.8-4.7 21.2-5.3v-.1s1.3-2 2.4-2.9c1.1-1 1.2-2 1.3-2.6s1.4-1.3 1.5.4-.7 2.9-.7 2.9l5.5-2.1s-1.4 5.3-8.5 8c0 0-9.7 4.6-16.5 6.9s-11.5 4-14-.2c-2.6-4.2-7.7-18.4-7.7-18.4l10.3.3z" class="Ay"/><path d="M138.4 174.9s-3.5-16.9-5-19.5c-1.6-2.6-8.2-3.3-10.4 2.2-2.3 5.5 3.5 20.7 3.5 20.7l11.9-3.4z" class="BA"/><path d="M389.9 97.5l-75.3 29.4 32.5 3.9z" class="BF"/><path d="M346.5 130.7l5.1 14.1 38.3-47.3z" class="Az"/><path d="M357.3 134l-5.7 10.8 38.3-47.3z" class="BB"/><path d="M389.9 97.5l-10.2 49.6-22.4-13.1z" class="BF"/><path d="M361.5 47.1l-75.3 29.5 32.5 3.9z" class="BD"/><path d="M318.1 80.4l5.1 14 38.3-47.3z" fill="#f789c3"/><path d="M328.9 83.6l-5.7 10.8 38.3-47.3z" fill="#e846a3"/><path d="M361.5 47.1l-10.2 49.7-22.4-13.2z" class="BD"/><path d="M318.6 389.4h-4.2c-1.9-2.2-4.3-4.2-7.4-6-15.5-8.9-40.6-8.9-56.1 0-2.9 1.7-5.3 3.5-7.1 5.5h-4.5v10.7c0 5.9 3.9 11.7 11.6 16.2 15.5 8.9 40.6 8.9 56.1 0 7.7-4.5 11.6-10.3 11.6-16.2v-10.2z" fill="#7a8389"/><path d="M241.2 389h-2v10.7c0 5.9 3.9 11.7 11.6 16.2 0 0 .1 0 .1.1v-11.4c-5.4-2.7-7.4-9.9-9.7-15.6z" fill="#f2c555"/><path d="M251.4 404.7c-.1-.1-.3-.1-.4-.2v11.4c8.7 5 20.4 7.2 31.7 6.5v-11.3c-10.7.4-21.9-2.2-31.3-6.4z" fill="#6daae2"/><path d="M318.6 389.4h-4.2c-1.9-2.2-4.3-4.2-7.4-6-15.5-8.9-40.6-8.9-56.1 0-2.9 1.7-5.3 3.5-7.1 5.5h-2.6c2.3 5.7 4.3 13 9.8 15.5V403v1.6c.1.1.3.1.4.2 9.4 4.2 20.6 6.8 31.3 6.4v-.6.6c8.9-.3 17.4-2.7 24.1-8v-1 1c3.6-2.8 6.7-6.4 9.1-11-2.4 4.6-5.5 8.2-9.1 11v12.7s.1-.1.2-.1c7.7-4.5 11.6-10.3 11.6-16.2v-10.2z" fill="#e54e8c"/><path d="M282.7 411.2v11.3c8.8-.5 17.4-2.7 24.1-6.5v-12.7c-6.8 5.2-15.3 7.6-24.1 7.9z" fill="#02d1af"/><path d="M306.9 405.6c-15.5 8.9-40.6 8.9-56.1 0s-15.5-23.4 0-32.4c15.5-8.9 40.6-8.9 56.1 0 15.5 9 15.5 23.5 0 32.4z" fill="#6e777f"/><path d="M306.9 373.2c-15.5-8.9-40.6-8.9-56.1 0s-15.4 23.4 0 32.4c0 0 .1 0 .1.1l28-16.2 28.1-16.2-.1-.1z" fill="#f79800"/><path d="M243.4 379.2c-7.4 8.6-4.9 19.2 7.5 26.4 0 0 .1 0 .1.1l28-16.2-35.6-10.3z" fill="#fedc78"/><path d="M306.9 405.6c15.5-8.9 15.5-23.4.1-32.3l-28 16.2 27.9 16.1z" class="BC"/><path d="M279,389.5l-28,16.2c15.5,8.9,40.5,8.9,55.9,0L279,389.5z" fill="#03f4d1"/><path d="M279,389.5l-28,16.2c8.7,5,20.3,7.2,31.6,6.5L279,389.5z" fill="#8ec2fc"/><path d="M368 309s.2 1.4.7 2.4.6 3.1.6 3.1-3.5 2.1-6 4.8c-2.7 2.9-4.7 3.2-6.8 2.7-1-.2-1.2-2.1-.5-2.9s7.7-5.7 7.4-8.1c1.3-1.3 4.6-2 4.6-2z" fill="#353535"/><path d="M356.6 321c2.1.5 3.6.2 6.8-2.9 2.3-2.3 5.4-4 5.9-4.5a5.81 5.81 0 0 1 .1 1s-2.8 1.6-5.3 4.2c-3.2 3.3-5.4 3.6-7.5 3.2-.7-.1-1-1.2-.9-2.1.1.5.4 1 .9 1.1z" fill="#5b5b5b"/><path d="M379.2 278.4s-7.3 5-16.3 9.9c4.5 7.3 5 19.2 4.7 21.3-2.8 2.6-4.8 1.2-4.8 1.2L352.3 287c-1.3-3.3 17.9-18.2 17.9-18.2l9 9.6z" class="BG"/><path d="M371.1 328.7l1.1 7.3c.5 3.5-.3 6.7-2.8 7.9-2.4.1-4.8-2.1-3.9-6.1.8-4 .5-7.4.5-9.3 0-2 5.1.2 5.1.2z" fill="#353535"/><path d="M392.2 286.3s-4.5 2.5-14.6 9.7c-3 2.2-3.1 19.9-6.1 32.4-2.2 3.9-5.8-.3-5.8-.3s-.5-27.7 1.9-36.5c.9-3.4 14.3-11.8 14.3-11.8l10.3 6.5z" class="BG"/><path d="M362.6 266.5c-.4-.2-.6-.5-.8-.9l1.7 1c-.5 0-.9-.1-.9-.1z" fill="#e2e2e2"/><path d="M359.2 261.6c5.4 1.9 14.2-10.8 15.8-12.2.8-.7 1-1.8 1.1-3.2h4c-1 4.3-2.6 8.6-3.2 9.3-1.1 1.4-13.2 13.2-16.1 8.7 1.9-.9-2-.5-1.6-2.6z" class="BH"/><path d="M380.7 283c.4-4 .8-7.9-.1-9.8-.8-1.6.5-7.1.5-7.1l18.9.7s2.6 5.4-.3 13.2c-1.7 4.4-4.2 5.6-15.8 11.6.5-3.5 1.2-9.6-3.2-8.6z" class="BG"/><path d="M375.3 265.2s-2.7-30.2 5.6-33.4 15.9 4.4 19.1 11.7 2.1 23.1 2.1 26.5c-11.4 7.8-27.2-1-26.8-4.8z" fill="#f7ffff"/><path d="M378.5 219.7s-2.1 3.3-.2 10.5c1.5 5.8 1.7 7.5 4.1 7.7 2.4.3 7.7-1.4 8.4-6 .7-.2 2.8-2.9 1.6-5.1s-2 .2-2 .2 0-4.8-3.3-6.6c-3.4-1.7-8.6-.7-8.6-.7z" class="Ay"/><path d="M386.5 225.5c0-.3-2.6 3.4-6.7 2.2 1.4-.4 1.8-1.4 1.8-1.4s-1.4 1.9-3.8 1.2c1-.4 1.5-.9 1.5-.9s-1.6.8-3.1.2c1-.4.8-1 .8-1s-.8.8-2.5-.6c.7-.1.6-3.1 3-5.4 2.4-2.2 4.9-4.4 8.1-3.8-.8-.8-.7-1-1.8-.8 1.3-.7 4.1-.2 4.9 1 2.5-1 5.6 2.8 4.1 12 0-.2-.2-1.7-1.1-2s-1.6 1.5-1.4 1.9.3 3 .3 3l-1.1.6s.4-2.3-.5-2.9c-.9-.7-2.4.2-2.5-3.3z" fill="#70380f"/><path d="M377.6 287.5l-27.2-15.7v-1.2l43.9 6.1v1.1z" fill="#a0a0a0"/><path d="M377.6 286.3l-27.2-15.7L367 261l27.3 15.7z" fill="#d6d6d6"/><linearGradient id="M" gradientUnits="userSpaceOnUse" x1="369.878" y1="261.917" x2="402.341" y2="261.917"><stop offset="0" stop-color="#ffe2c4"/><stop offset="1" stop-color="#ffb870"/></linearGradient><path d="M370.2 272c1.2-.1 2.5.2 4.5.2s2-1.1 2-2.7c.6.5 1 1.8 2.1 2.5 1 .7 1.5 0 1.5 0l.2.2c7.3-1.3 13.9-7.1 15.1-8.8 1.2-1.8-.5-9.2-.8-14.1 0 0 1.1-4.4 5-2.1 3.9 2.2 1.9 18.1 1.9 19.9s-14.6 8.2-21.4 8.8c-1.2.7-2.6 1.3-4 1.4-5.8-.1-7.2-5.2-6.1-5.3z" fill="url(#M)"/><path d="M370.2 272c1.2-.1 2.5.2 4.5.2s2-1.1 2-2.7c.6.5 1 1.8 2.1 2.5 1 .7 1.5 0 1.5 0l.2.2c7.3-1.3 13.9-7.1 15.1-8.8.8-1.2.3-4.7-.1-8.3-.4-3.2-2.7-7.3-2.2-12.4 0 0 .4-5.6 4.3-3.4 2 1.1 3.8 8.2 4.8 14.2.9 7.4.5 12.4.5 13.5 0 1.8-15.6 8.3-22.5 9-1.2.7-2.6 1.3-4 1.4-5.9-.2-7.3-5.3-6.2-5.4z" class="Ay"/><path d="M382.9 270.6c6-2.1 11.8-5.7 12.8-7.2.8-1.2.3-4.7-.1-8.3-.4-3.2-2.7-7.3-2.2-12.4 0 0 .4-5.6 4.3-3.4 2 1.1 3.8 8.2 4.8 14.2.9 7.4.5 12.4.5 13.5 0 1.5-10.6 7.1-18.2 9 0-1.3-.8-4.1-1.9-5.4z" class="BH"/><path d="M350.4 251.3l27.2 35 .9-.5v-19.2l-27.3-15.7z" class="BA"/><path d="M350.4 270.6l27.2 15.7v-19.2l-27.2-15.8z" fill="#efefef"/><path d="M201.7 152.1h0v-4.6l3.3 1.7 5.9-3.4c1.9-1.1 5-1.1 6.9 0l58.9 34 3.4-1.6v4.6c.1.8-.4 1.6-1.4 2.2l-7.8 4.5c-1.9 1.1-5 1.1-6.9 0l-60.9-35.2c-1-.7-1.5-1.4-1.4-2.2z" class="BB"/><path d="M276.7 179.8l3.4-1.6v4.6c.1.8-.4 1.6-1.4 2.2l-7.8 4.5c-.9.5-2.1.8-3.4.8v-15.7l9.2 5.2z" class="BI"/><path d="M270.9 184.5c-1.9 1.1-5 1.1-6.9 0l-60.9-35.1c-1.9-1.1-1.9-2.9 0-4l7.8-4.5c1.9-1.1 5-1.1 6.9 0l60.9 35.1c1.9 1.1 1.9 2.9 0 4l-7.8 4.5z" class="Az"/><path d="M182 37.3l4-2.3c.1-.1.2-.1.3-.2h0c.4-.1.9-.1 1.4.2l114.6 66.2c1.2.7 2.2 2.4 2.2 3.9v88c0 .7-.2 1.2-.6 1.4-.1 0-.1.1-.2.1l-4 2.3-.8-4.3 1.2.5-112.4-64.9c-1.2-.7-2.2-2.4-2.2-3.9V39.7l-3.5-2.4z" fill="#35afe5"/><path d="M186 35.1c.1-.1.2-.1.3-.2h0c.4-.1.9-.1 1.4.2l114.6 66.2c.5.3 1 .8 1.4 1.4L227.1 151l-39.4-22.7c-1.2-.7-2.2-2.4-2.2-3.9V39.7l-3.5-2.4 4-2.2z" class="Az"/><path d="M181.4 126.8c0 1.4 1 3.1 2.2 3.9l114.6 66.1c1.2.7 2.2.1 2.2-1.3v-88c0-1.4-1-3.1-2.2-3.9L183.6 37.5c-1.2-.7-2.2-.1-2.2 1.3v88z" class="BB"/><path d="M183.5 120.3l114.7 66.2v-79.2L183.5 41.1z" class="BF"/><path d="M184.7 41.8v77.6L298.2 185v1.5l-114.7-66.2V41.1z" class="BA"/><use xlink:href="#R" fill="#2d2d2d"/><path d="M306.3 377.5c0-.1-.1-.2-.3-.2-1.4-.2-2.4.6-2.2 1.2.3.6 1.7 10-.6 12.4-1.2 1.2-4.3 1.2-4.4 1.4 6.3 0 7.4-1.3 7.6-2.2.7-2.1.2-12-.1-12.6z" fill="#444"/><path d="M285.1 321.5s4.5 4.8 5.1 21.2c-.9 3.1-8.7 1.3-9.7 0s0-4.2 0-4.2h4l-1.2-7.9 1.8-9.1z" class="BH"/><path d="M300.4 376.8l-22.1 3.6c-1.3-1.7 2.5-10.3 3.7-13 4-7.5-2.1-14.4-2.1-14.4l-10-2.9s-5.5 26.1-7.3 31.8c-3.3 10.2 28.7 4.5 38.2 2.8-.3-1.3-2.1-6.1-.4-7.9z" fill="#113559"/><use xlink:href="#R" x="-12.3" y="9" fill="#2d2d2d"/><path d="M294 386.4c0-.1-.1-.2-.3-.2-1.4-.2-2.4.6-2.2 1.2.3.6 1.7 10-.6 12.4-1.2 1.2-4.3 1.2-4.4 1.4 6.3 0 7.4-1.3 7.6-2.2.7-2.1.1-12-.1-12.6z" fill="#444"/><path d="M288.3 385.8l-22-1.3c-1.3-1.7 5.6-9 6.8-11.8 5.9-11.2 5-16.3 5-16.3l-18.5-.7s-5.7 22.5-7.1 30.8c-1.9 10.5 17.8 3.4 35.2 7.3-.1-1.4-1.2-6.4.6-8z" class="BG"/><path d="M267.5 301.5s-3-.2-4.3 3.1c-.2.5-.3 1-.1 1.5.2.9-.2 2.4-.6 3.4-.8 1.9.5 5.3 1.8 7 1.6.6 2.8-.5 2.8-.5l.9 3.6 7.9-1.8s-.9-2.8.2-7.1.8-6.5-2-8c-2.8-1.6-6.6-1.2-6.6-1.2" class="Ay"/><path d="M264.7 296.2s2 1.5 8.4 2.1 6.4 5 5.5 7.3c1.9.8-2.4 7.5-2.5 10.2-3.7 1.2-6.4-.6-6.4-.6s-1.2-2.2-.4-4.5c.9-2.4-.6-4.7-1.5-4.1-.2.1-.6 3.9-.8 3.9h-.5c-.3-.1.1-1-.1-2.7-.1-.8-1.1-2.4-1-2.9.1-.6.8-2.3.8-2.3l-1.4-.3s-1.5.1-1.5-1.3c.2-2.5 1.4-4.8 1.4-4.8" fill="#1c0687"/><path d="M257.3 326s3.5-4.1 10.8-6.8c3.4-1.3 7.3-1.7 7.3-1.7s5.9-.9 10.1 4.6c1.2 1.6 2.9 5.8.5 11.7s-1.7 13.2-2.1 16.2c-.5 3.8.4 14 .4 14s-.2.8-5.5 1.8l-2.8.5c-5.5.7-11.8 1-19.7-3l3.4-18c.9-4-2.4-19.3-2.4-19.3" fill="#f7ffff"/><path d="M234.9 307.3s-1.2-2.1-1.4-3.8c-.3-1.7-.8-3.2-1.8-4.2s-3.8-3.2-4.1-3.3-1.3.2-.4 1 2.2 2 2.2 2.7c0 .4-2.2 2.9-1.3 4.7 1 1.8.6.4 3.5 4.8 2.6 2.6 3.3-1.9 3.3-1.9z" class="Ay"/><path d="M265.8 324.9s-1.9-3-8.4-.2-13.3.1-13.3.1-7-16.4-8.3-17.8l-5.5 2.3s4.8 16.8 7.5 21.2 13.6 4.8 19.4 4.3c5.9-.3 10.2-5.5 8.6-9.9z" class="BH"/><path d="M283 170.3l-67.7-39.1v-.6l67.7 39.1zm0-6.2L215.3 125v-.6l67.7 39.1zm0-6.2l-67.7-39.1v-.6l67.7 39.1zm0-6.2l-67.7-39.1v-.6l67.7 39.1zm0-6.3l-67.7-39v-.6l67.7 39.1zm0-6.2l-67.7-39v-.6l67.7 39.1zm0-6.2l-67.7-39.1v-.5l67.7 39.1zm0-6.6l-67.7-39v-.6l67.7 39.1zm0-6.2l-67.7-39v-.6l67.7 39.1zm0-6.2l-67.7-39.1v-.5l67.7 39.1z" opacity=".4" fill="#a3a3a3"/><linearGradient id="N" gradientUnits="userSpaceOnUse" x1="283.42" y1="133.195" x2="216.497" y2="133.195"><stop offset="0" stop-color="#4cc194"/><stop offset=".284" stop-color="#4cd08b"/><stop offset=".68" stop-color="#4ce083"/><stop offset="1" stop-color="#4ce580"/></linearGradient><path d="M282.6 170.4l-9.6-47.7-8.3 10.9-7.8-17.4-7.5-5-7.6-12.9-7 27.3-9-16.9-8.5 23.6-.8-.3 9.1-25.4 8.9 16.6 7-27.2 8.6 14.6 7.5 5 7.3 16.3 8.6-11.2 9.9 49.5z" fill="url(#N)"/><path d="M282.6 170.4l-9.5-44.1-8.4 13.7-7.7-16.8-7.5.9-7.8-12.6-7 13.8-8.9-13.5-8.5 20.5-.8-.4 9.1-21.9 9 13.6 7-13.9 8.4 13.5 7.5-.9 7.3 15.9 8.7-14.2 9.9 46.2z" fill="#f2e941"/><path d="M282.6 170.4l-9.6-25.9-8.5.4-7.4-17.1-7.4 8-8.2-10.2-7 3.1-8.7-8.9-8.5 12.6-.8-.5 9.2-13.4 9 9.2 7.1-3.1 8 9.9 7.6-8.3 7.7 17.8 8.5-.4 9.8 26.5z" fill="#6b79fc"/><path d="M282.6 170.5l-9.6-17.2-8.5-1-7.5-17-7.4 2.1-8-7.8-7 5.8-8.9-8.8-8.6 5.9-.4-.7 9.1-6.4 8.8 8.8 7.1-5.7 8.2 8 7.6-2.2 7.6 17.2 8.4 1 9.9 17.6z" fill="#f438b1"/><g fill="#24c1d1"><use xlink:href="#S"/><use xlink:href="#T"/><use xlink:href="#S" x="9" y="-12.9"/><use xlink:href="#S" x="9" y="-20.9"/><use xlink:href="#T" y="-18.8"/><ellipse cx="241.6" cy="97.3" rx=".9" ry="1.3"/><use xlink:href="#T" x="16.2" y="-15.9"/><use xlink:href="#S" x="24.9" y="-6.7"/><use xlink:href="#S" x="24.9" y="-2.5"/><use xlink:href="#S" x="33" y="5.1"/><use xlink:href="#S" x="33" y="2.9"/><use xlink:href="#S" x="33" y="-8.3"/><use xlink:href="#S" x="33" y="-20.9"/><use xlink:href="#T" x="31.6" y="-10.4"/><use xlink:href="#S" x="40.6" y="-9.2"/><use xlink:href="#T" x="31.6" y="0.7"/><use xlink:href="#S" x="40.6" y="3.3"/><use xlink:href="#S" x="48.2" y="20.2"/><use xlink:href="#T" x="39.2" y="18"/><use xlink:href="#S" x="48.2" y="6.9"/><use xlink:href="#T" x="39.2" y="6.2"/><use xlink:href="#S" x="56.6" y="-10.4"/><use xlink:href="#T" x="47.6" y="-1.6"/><use xlink:href="#T" x="47.6" y="17.8"/><use xlink:href="#T" x="47.6" y="26.5"/><use xlink:href="#S" x="66.3" y="38.1"/><use xlink:href="#T" x="9.1" y="1.5"/><use xlink:href="#S" x="17.7" y="-7.3"/><use xlink:href="#S" x="17.7" y="2.6"/></g><path d="M232.1 89.4s1.9-.8 2.3-1.8.3-1.1.9-1.8c.5-.6 1.2-1.9 2-2.3.7-.4.7.9.3 1.3S237 86 237 86s3.8-2.2 4.8-2.2.2 1 0 1c1-.4 1.4-.2 1.5-.1.1 0 .1.6-.6.9.4-.2 1.2.2-.5 1.4.9-.5.9.3.3.8-.5.4-2.8 2.6-5.2 2.8s-3.9 1.2-3.9 1.2l-1.3-2.4z" class="Ay"/><path d="M232.3 87.9s-17.4 5.5-18.9 7.4c-1.3 1.6-11.1-18.7-13.3-19.6s-5.8 4-3.4 10.1c4.8 12.2 15.1 18.9 17.3 17.8l20.7-10.4s-.2-2.9-2.4-5.3z" fill="#2c4370"/><path d="M200.9 180.3l1.4 2.4c.8 1.2 3.1 1.3 3.6 1.9.5.7.5 2.8.5 2.8s-3 .6-5.7-1l-4.9-2.6s0-2.9.2-3.4c.2-.6 4.9-.1 4.9-.1z" fill="#282828"/><path d="M200.7 185.7l-4.9-2.6v.7l4.9 2.6c2.7 1.5 5.7 1 5.7 1v-.7c-.1 0-3.1.5-5.7-1z" fill="#1c1c1c"/><path d="M188.1 122.8s5.7 19.2 6.3 24.2-1.1 21.4 1.4 33.2c3.5 1.8 4.7 1 4.7 1l.6-1.5s2.4-26.6 2.3-32.8-1.2-23.8-1.2-23.8l-14.1-.3z" fill="#17253d"/><path d="M191.1 183.9l1.4 2.4c.8 1.3 3.1 2.2 3.7 2.8.5.7.4 2.8.4 2.8s-3.6.5-6.2-1.1-4.4-3.5-4.4-3.5.1-2.9.3-3.4c.1-.5 4.8 0 4.8 0z" fill="#282828"/><path d="M196.5 191.1s-3.6.5-6.2-1.1c-2.4-1.5-4.1-3.3-4.4-3.5v.9s1.8 1.9 4.4 3.5 6.2 1.1 6.2 1.1v-.9z" fill="#1c1c1c"/><path d="M179.5 126.2s5.3 19.4 5.8 24.4-2 21.8.3 33.7c3.4 1.8 4.9 1.4 4.9 1.4l1.2-1.4s2.7-27.5 2.7-33.7-.7-23.8-.7-23.8l-14.2-.6z" fill="#1b2a49"/><path d="M189.2 72s-10.3 3.1-13.8 10.4 1 16.8.9 19.1c-.1 2.4.4 26.7.4 26.7l18.5.3 2-4.4 2.5 3.3 4-3.7s-1.5-21.9-1.2-26.4 2.3-16.5-1.8-22.2c-3.1-2-10.6-3.4-11.5-3.1z" fill="#27365b"/><path d="M185.2 73.2s-4 3.2-3.6 5.4 13.7 13.5 14.2 16.7c2.4-4.5-.6-18.1-2-20.7s-8.6-1.4-8.6-1.4z" fill="#efefef"/><path d="M184.9 67.2l-.7 7.6 6.6 4.3 1.3-1.7.5-4.2z" fill="#ea977a"/><path d="M197 60.7s1.9 11.6-4 14.4c-2.5.5-7.7-2.9-7.6-6.7-2.1-.4-2.1-4.3-1-5.1 1-.8 1.4 1.3 1.4 1.3s-1-5.2 2.1-5.3c3-.1 9.1 1.4 9.1 1.4z" class="Ay"/><path d="M187.4 61.1s4.8 2.6 7.4 2.2 3.4-1.7 3.8-3.1-8.1-12.4-15-4.3c-3.1 1-2.2 11.6 1.1 13.4.1-.3.2-1 .2-1s-1.1-1.3-1-2.8c.2-1.5.5-1.9.8-1.9s1 1.1 1.1 1.6c.1.6.1 1.3.1 1.3l.8.1s0-1.4.2-1.8c.1-.5 1.4-2.7.5-3.7z" fill="#bc610f"/><path d="M190.8 79.1l-1.2 2.4 1.4.9 1.5 8.2 3.2 4.6s1.2-1.7.9-5.7l-4.1-7.4.4-1.9-2.1-1.1z" fill="#ef6fb5"/><path d="M186.2 128l-4 1.3s1.9 2.4 1.7 3.5c-.2 1 0 2 .5 2.8l4.1-5.3c-1.7-1.1-2.3-2.3-2.3-2.3z" class="Ay"/><path d="M187.5 128.9s-7.2-18.8-9.3-20.4c-1.8-1.5 2.5-16.5 3.5-19 .9-2.5-2.3-12-6.7-6.1-4.4 5.8-6.4 25.6-5.1 28 1.3 2.5 12.9 21 12.9 21s2.1-1.1 4.7-3.5z" fill="#2c4370"/><radialGradient id="O" cx="193.507" cy="282.425" r="35.097" gradientTransform="matrix(0.9696 0 0 0.5753 1.5347 282.1703)" gradientUnits="userSpaceOnUse"><stop offset="0" stop-color="#7c969e"/><stop offset=".148" stop-color="#819aa2" stop-opacity=".852"/><stop offset=".332" stop-color="#91a7ad" stop-opacity=".668"/><stop offset=".535" stop-color="#aabbc0" stop-opacity=".465"/><stop offset=".752" stop-color="#cdd7da" stop-opacity=".248"/><stop offset=".978" stop-color="#fafbfb" stop-opacity=".022"/><stop offset="1" stop-color="#fff" stop-opacity="0"/></radialGradient><path d="M224.3 444.6c0 11.3-15.7 20.5-35.1 20.5S154 456 154 444.6c0-11.3 15.7-20.5 35.1-20.5s35.2 9.2 35.2 20.5z" opacity=".6" fill="url(#O)"/><radialGradient id="P" cx="218.04" cy="259.619" r="35.097" gradientTransform="matrix(0.9696 0 0 0.5753 1.5347 279.3509)" gradientUnits="userSpaceOnUse"><stop offset="0" stop-color="#7c969e"/><stop offset=".148" stop-color="#819aa2" stop-opacity=".852"/><stop offset=".332" stop-color="#91a7ad" stop-opacity=".668"/><stop offset=".535" stop-color="#aabbc0" stop-opacity=".465"/><stop offset=".752" stop-color="#cdd7da" stop-opacity=".248"/><stop offset=".978" stop-color="#fafbfb" stop-opacity=".022"/><stop offset="1" stop-color="#fff" stop-opacity="0"/></radialGradient><path d="M248.1 428.7c0 11.3-15.7 20.5-35.1 20.5s-35.1-9.2-35.1-20.5 15.7-20.5 35.1-20.5c19.3 0 35.1 9.2 35.1 20.5z" opacity=".6" fill="url(#P)"/><path d="M201.4 444.8l1.7-.9c.6-.3 1.1-.7 1.6-1 0 0 .1-1.7 0-1.8-1.4-1.4-3.2-1.3-2.7-1.9s3.8-.7 6.7-.9a8.39 8.39 0 0 0 .7-2.6c-.1 0 .1-1.8 0-1.8-2.6-.7-5.7.4-5.9-.3s2.3-1.9 4.5-3v-1.8c-2.9.4-8.1.3-9-.2s-.1-2.3.5-4v-1.8c-2 1.3-8.1 3.3-9.3 3.2s-2.4-1.9-3.6-3.4c-1.5 0-3 .2-4.5.4-.3 1.7-.5 3.6-1.6 3.9-1 .3-3.8-.7-6.3-1.6-.6.3-2.7-.2-3.3.1v1.8c1.5 1.5 3.2 3.1 2.7 3.7-.6.6-4.3.9-7.2 1.1-.4.9-.1 1.6-.2 2.4 2.7.7 5.7 1.4 5.9 2.1.2.6-2.5.1-4.5 1.2v1.8a8.96 8.96 0 0 0 2.1 2.3c2.9-.4 6-.8 6.9-.3.8.5 0 .7-.6 2.2-.1.1.1 1.7 0 1.8 1.3.5 2.7.9 4.1 1.2 2-1.3 4-2.7 5.2-2.6s2.4 1.9 3.6 3.4c1.5 0 3-.2 4.5-.4.3-1.7.5-3.6 1.6-3.9s3.9.8 6.4 1.6zm-21-5.4c-4.2-2.4-4.2-6.3 0-8.7s10.9-2.4 15 0c4.2 2.4 4.2 6.3 0 8.7-4.1 2.4-10.8 2.4-15 0z" fill="#d8128d"/><path d="M201.4 443l1.7-.9c.6-.3 1.1-.7 1.6-1-1.5-1.5-3.2-3.1-2.7-3.7s3.8-.7 6.7-.9a8.39 8.39 0 0 0 .7-2.6c-2.7-.7-5.7-1.4-5.9-2.1s2.3-1.9 4.5-3a8.96 8.96 0 0 0-2.1-2.3c-2.9.4-6 .8-6.9.3s-.1-2.3.5-4c-1.3-.5-2.7-.9-4.1-1.2-2 1.3-4 2.7-5.2 2.6s-2.4-1.9-3.6-3.4c-1.5 0-3 .2-4.5.4-.3 1.7-.5 3.6-1.6 3.9-1 .3-3.8-.7-6.3-1.6l-1.7.9c-.6.3-1.1.7-1.6 1 1.5 1.5 3.2 3.1 2.7 3.7-.6.6-3.8.7-6.7.9a8.39 8.39 0 0 0-.7 2.6c2.7.7 5.7 1.4 5.9 2.1s-2.4 1.9-4.5 3a8.96 8.96 0 0 0 2.1 2.3c2.9-.3 6-.8 6.9-.3s.1 2.3-.6 4c1.3.5 2.7.9 4.1 1.2 2-1.3 4-2.7 5.2-2.6s2.4 1.9 3.6 3.4c1.5 0 3-.2 4.5-.4.3-1.7.5-3.6 1.6-3.9s3.9.7 6.4 1.6zm-21-5.4c-4.2-2.4-4.2-6.3 0-8.7s10.9-2.4 15 0c4.2 2.4 4.2 6.3 0 8.7-4.1 2.4-10.8 2.4-15 0z" fill="#f431a1"/><path d="M223.8 427l1.1-.6c.4-.2.7-.4 1-.6v-1.7c-.9-.9-2-.3-1.7-.6.3-.4 2.4-.5 4.2-.6.2-.5.4-1.1.4-1.6v-1.7c-1.6-.4-3.6.8-3.7.4s1.5-1.2 2.8-1.9v-1.7c-1.8.2-5.1.7-5.6.4s0-1.5.3-2.5v-1.7c-1.2.8-5.1 2.6-5.8 2.6-.7-.1-1.5-1.2-2.2-2.1a12.65 12.65 0 0 0-2.8.3c-.2 1.1-.3 2.2-1 2.4s-2.4-.5-4-1c-.4.2-1.7-.7-2.1-.5v1.7c.9.9 2 1.9 1.7 2.3s-2.8.4-4.7.6v1.7c1.7.4 3.6.9 3.7 1.3s-1.6-.4-2.8.2v1.7c.3.5.8 1 1.3 1.5 1.8-.2 3.8-.5 4.3-.2.2.1 0-.1-.3.8v1.7c.8.3 1.7.6 2.6.7 1.2-.8 2.5-1.7 3.3-1.6.7.1 1.5 1.2 2.2 2.1a12.65 12.65 0 0 0 2.8-.3c.2-1.1.3-2.2 1-2.4.7-.3 2.4.4 4 .9zm-13.2-3.4c-2.6-1.5-2.6-3.9 0-5.4s6.8-1.5 9.4 0 2.6 3.9 0 5.4-6.8 1.5-9.4 0z" fill="#d8128d"/><path d="M223.8 425.3l1.1-.6c.4-.2.7-.4 1-.6-.9-.9-2-1.9-1.7-2.3s2.4-.5 4.2-.6c.2-.5.4-1.1.4-1.6-1.7-.4-3.6-.9-3.7-1.3s1.5-1.2 2.8-1.9c-.3-.5-.8-1-1.3-1.5-1.8.2-3.8.5-4.3.2s0-1.5.3-2.5c-.8-.3-1.7-.6-2.6-.7-1.2.8-2.5 1.7-3.3 1.6-.7-.1-1.5-1.2-2.2-2.1a12.65 12.65 0 0 0-2.8.3c-.2 1.1-.3 2.2-1 2.4s-2.4-.5-4-1l-1.1.6c-.4.2-.7.4-1 .6.9.9 2 1.9 1.7 2.3s-2.4.5-4.2.6c-.3.5-.4 1.1-.4 1.6 1.7.4 3.6.9 3.7 1.3s-1.5 1.2-2.8 1.9c.3.5.8 1 1.3 1.5 1.8-.2 3.8-.5 4.3-.2s0 1.5-.3 2.5c.8.3 1.7.6 2.6.7 1.2-.8 2.5-1.7 3.3-1.6.7.1 1.5 1.2 2.2 2.1a12.65 12.65 0 0 0 2.8-.3c.2-1.1.3-2.2 1-2.4.7-.1 2.4.5 4 1zm-13.2-3.3c-2.6-1.5-2.6-3.9 0-5.4s6.8-1.5 9.4 0 2.6 3.9 0 5.4-6.8 1.5-9.4 0z" fill="#f431a1"/><path d="M99.6 408.7v-5.3h-2.4c-.9-.9-1.9-1.7-3.2-2.5-7.5-4.3-19.6-4.3-27.1 0-1.3.8-2.4 1.6-3.2 2.5h-2.4v5.3c0 2.8 1.9 5.7 5.6 7.8 7.5 4.3 19.6 4.3 27.1 0 3.8-2.1 5.6-4.9 5.6-7.8z" fill="#86e5ff"/><path d="M94 411.2c-7.5 4.3-19.6 4.3-27.1 0s-7.5-11.3 0-15.6 19.6-4.3 27.1 0 7.5 11.3 0 15.6z" fill="#f3fdff"/><path d="M98 315.6c-2.2-12.3-17.6-46.9-17.6-46.9s-15.3 34.6-17.5 46.9c-3.8 21.2 0 86.1 0 86.1h0c0 2.6 1.7 5.2 5.1 7.2 6.9 4 18 4 24.8 0 3.4-2 5.2-4.6 5.1-7.2.2-1.2 3.9-65.1.1-86.1z" class="Az"/><path d="M98.7 317.7l-.3-2.1c-2.2-12.3-17.6-46.9-17.6-46.9s-15.3 34.6-17.5 46.9c-.1.6-.2 1.3-.3 2l-.3 2.1c.1 2.6 1.9 5.2 5.3 7.2 7.1 4.1 18.6 4.1 25.7 0 3.4-2 5.2-4.6 5.3-7.2-.2-.7-.2-1.4-.3-2z" class="BC"/><path d="M113.9 430.2l-20.8-63.1 1.8-1.1 17.8 18.3 3 44.8z" class="BD"/><path d="M93.1 408.6v-41.5l17.8 18.3 3 44.8z" class="BC"/><path d="M46.4 430.2l20.7-63.1-1.8-1.1-17.8 18.3-3 44.8z" class="BD"/><path d="M67.1 408.6v-41.5l-17.8 18.3-2.9 44.8z" class="BC"/><path d="M75.4 378.4h9.2v28.7h-9.2zm0-38.1h9.2v31.5h-9.2z" fill="#f3fdff"/><defs ><path id="R" d="M298.5 378l4.8-1.2c.8 0 2.7-.1 3 .6.3.6.8 10.5.2 12.6-.6 2-7.4 2.6-8.9 1.9-1-1.8 2.3-4.1 3.6-4.8s-.3-4.5-2.2-4.5c-1.9.1-.5-4.6-.5-4.6z"/><path id="S" d="M217.6 131.9c0 .7-.4 1.3-.9 1.3s-.9-.6-.9-1.3.4-1.3.9-1.3.9.6.9 1.3z"/><path id="T" d="M226.6 126.4c0 .7-.4 1.3-.9 1.3s-.9-.6-.9-1.3.4-1.3.9-1.3c.5.1.9.6.9 1.3z"/></defs></svg>